# xmcd
#
# Track frame offsets:
#	183
#	15640
#	30423
#	45973
#	59260
#	73580
#	88203
#	103455
#	113095
#	126523
#	140433
#	157655
#	170918
#	184013
#	197935
#	218345
#	235658
#	249878
#	261428
#	275475
#
# Disc length: 3865 seconds
#
# Revision: 3
# Processed by: cddbd v1.5.2PL0 Copyright (c) Steve Scherf et al.
# Submitted via: audiograbber 1.83.01
#
DISCID=1a0f1714
DTITLE=Sampler Jazz - The story of swing
DYEAR=1900
DGENRE=Jazz
TTITLE0=Miller, Glenn - Moonlight serenade
TTITLE1=Miller, Glenn - Pennsylvania 6-5000
TTITLE2=Miller, Glenn - Chattanooga-choo choo
TTITLE3=Miller, Glenn - In the mood
TTITLE4=Goodman, Benny - King Porter stomp
TTITLE5=Goodman, Benny - Stompin' at the Savoy
TTITLE6=Goodman, Benny - St. Louis blues
TTITLE7=Goodman, Benny - Alexander's Ragtime Band
TTITLE8=Basie, Count - Bolero at the Savoy
TTITLE9=Basie, Count - One o'clock jump
TTITLE10=Basie, Count - How high the moon
TTITLE11=Basie, Count - 16 men swinging
TTITLE12=Ellington, Duke - Cotton Club stomp
TTITLE13=Ellington, Duke - Mood indigo
TTITLE14=Ellington, Duke - Take the 'A' Train
TTITLE15=Ellington, Duke - The mooche
TTITLE16=Dorsey, Tommy - Song of India
TTITLE17=Dorsey, Tommy - Night and day
TTITLE18=Dorsey, Tommy - Smoke gets in your eyes
TTITLE19=Dorsey, Tommy - Boogie woogie
EXTD=
EXTT0=
EXTT1=
EXTT2=
EXTT3=
EXTT4=
EXTT5=
EXTT6=
EXTT7=
EXTT8=
EXTT9=
EXTT10=
EXTT11=
EXTT12=
EXTT13=
EXTT14=
EXTT15=
EXTT16=
EXTT17=
EXTT18=
EXTT19=
PLAYORDER=
